<?xml version="1.0" standalone="no"?>
<svg xmlns="http://www.w3.org/2000/svg" version="1.1" width="1189" height="1189">
	<!-- Created with https://api.qrserver.com (QR Code API, see goQR.me/api for information) -->
	<title>QR Code</title>
	<desc>https://peihan-banana.github.io/Math_Knowledge/</desc>
	<rect style="fill:rgb(255, 255, 255);fill-opacity:1" x="0" y="0" width="1189" height="1189" />
	<g id="elements">
		<path style="fill:rgb(0, 0, 0)" d="M 0,0 l 41,0 0,41 -41,0 z M 41,0 l 41,0 0,41 -41,0 z M 82,0 l 41,0 0,41 -41,0 z M 123,0 l 41,0 0,41 -41,0 z M 164,0 l 41,0 0,41 -41,0 z M 205,0 l 41,0 0,41 -41,0 z M 246,0 l 41,0 0,41 -41,0 z M 369,0 l 41,0 0,41 -41,0 z M 533,0 l 41,0 0,41 -41,0 z M 574,0 l 41,0 0,41 -41,0 z M 615,0 l 41,0 0,41 -41,0 z M 656,0 l 41,0 0,41 -41,0 z M 738,0 l 41,0 0,41 -41,0 z M 779,0 l 41,0 0,41 -41,0 z M 820,0 l 41,0 0,41 -41,0 z M 902,0 l 41,0 0,41 -41,0 z M 943,0 l 41,0 0,41 -41,0 z M 984,0 l 41,0 0,41 -41,0 z M 1025,0 l 41,0 0,41 -41,0 z M 1066,0 l 41,0 0,41 -41,0 z M 1107,0 l 41,0 0,41 -41,0 z M 1148,0 l 41,0 0,41 -41,0 z M 0,41 l 41,0 0,41 -41,0 z M 246,41 l 41,0 0,41 -41,0 z M 328,41 l 41,0 0,41 -41,0 z M 369,41 l 41,0 0,41 -41,0 z M 451,41 l 41,0 0,41 -41,0 z M 492,41 l 41,0 0,41 -41,0 z M 533,41 l 41,0 0,41 -41,0 z M 574,41 l 41,0 0,41 -41,0 z M 615,41 l 41,0 0,41 -41,0 z M 697,41 l 41,0 0,41 -41,0 z M 902,41 l 41,0 0,41 -41,0 z M 1148,41 l 41,0 0,41 -41,0 z M 0,82 l 41,0 0,41 -41,0 z M 82,82 l 41,0 0,41 -41,0 z M 123,82 l 41,0 0,41 -41,0 z M 164,82 l 41,0 0,41 -41,0 z M 246,82 l 41,0 0,41 -41,0 z M 369,82 l 41,0 0,41 -41,0 z M 410,82 l 41,0 0,41 -41,0 z M 451,82 l 41,0 0,41 -41,0 z M 574,82 l 41,0 0,41 -41,0 z M 615,82 l 41,0 0,41 -41,0 z M 779,82 l 41,0 0,41 -41,0 z M 820,82 l 41,0 0,41 -41,0 z M 902,82 l 41,0 0,41 -41,0 z M 984,82 l 41,0 0,41 -41,0 z M 1025,82 l 41,0 0,41 -41,0 z M 1066,82 l 41,0 0,41 -41,0 z M 1148,82 l 41,0 0,41 -41,0 z M 0,123 l 41,0 0,41 -41,0 z M 82,123 l 41,0 0,41 -41,0 z M 123,123 l 41,0 0,41 -41,0 z M 164,123 l 41,0 0,41 -41,0 z M 246,123 l 41,0 0,41 -41,0 z M 328,123 l 41,0 0,41 -41,0 z M 369,123 l 41,0 0,41 -41,0 z M 451,123 l 41,0 0,41 -41,0 z M 574,123 l 41,0 0,41 -41,0 z M 697,123 l 41,0 0,41 -41,0 z M 779,123 l 41,0 0,41 -41,0 z M 902,123 l 41,0 0,41 -41,0 z M 984,123 l 41,0 0,41 -41,0 z M 1025,123 l 41,0 0,41 -41,0 z M 1066,123 l 41,0 0,41 -41,0 z M 1148,123 l 41,0 0,41 -41,0 z M 0,164 l 41,0 0,41 -41,0 z M 82,164 l 41,0 0,41 -41,0 z M 123,164 l 41,0 0,41 -41,0 z M 164,164 l 41,0 0,41 -41,0 z M 246,164 l 41,0 0,41 -41,0 z M 410,164 l 41,0 0,41 -41,0 z M 492,164 l 41,0 0,41 -41,0 z M 533,164 l 41,0 0,41 -41,0 z M 656,164 l 41,0 0,41 -41,0 z M 697,164 l 41,0 0,41 -41,0 z M 738,164 l 41,0 0,41 -41,0 z M 779,164 l 41,0 0,41 -41,0 z M 902,164 l 41,0 0,41 -41,0 z M 984,164 l 41,0 0,41 -41,0 z M 1025,164 l 41,0 0,41 -41,0 z M 1066,164 l 41,0 0,41 -41,0 z M 1148,164 l 41,0 0,41 -41,0 z M 0,205 l 41,0 0,41 -41,0 z M 246,205 l 41,0 0,41 -41,0 z M 328,205 l 41,0 0,41 -41,0 z M 410,205 l 41,0 0,41 -41,0 z M 533,205 l 41,0 0,41 -41,0 z M 615,205 l 41,0 0,41 -41,0 z M 738,205 l 41,0 0,41 -41,0 z M 820,205 l 41,0 0,41 -41,0 z M 902,205 l 41,0 0,41 -41,0 z M 1148,205 l 41,0 0,41 -41,0 z M 0,246 l 41,0 0,41 -41,0 z M 41,246 l 41,0 0,41 -41,0 z M 82,246 l 41,0 0,41 -41,0 z M 123,246 l 41,0 0,41 -41,0 z M 164,246 l 41,0 0,41 -41,0 z M 205,246 l 41,0 0,41 -41,0 z M 246,246 l 41,0 0,41 -41,0 z M 328,246 l 41,0 0,41 -41,0 z M 410,246 l 41,0 0,41 -41,0 z M 492,246 l 41,0 0,41 -41,0 z M 574,246 l 41,0 0,41 -41,0 z M 656,246 l 41,0 0,41 -41,0 z M 738,246 l 41,0 0,41 -41,0 z M 820,246 l 41,0 0,41 -41,0 z M 902,246 l 41,0 0,41 -41,0 z M 943,246 l 41,0 0,41 -41,0 z M 984,246 l 41,0 0,41 -41,0 z M 1025,246 l 41,0 0,41 -41,0 z M 1066,246 l 41,0 0,41 -41,0 z M 1107,246 l 41,0 0,41 -41,0 z M 1148,246 l 41,0 0,41 -41,0 z M 492,287 l 41,0 0,41 -41,0 z M 574,287 l 41,0 0,41 -41,0 z M 615,287 l 41,0 0,41 -41,0 z M 656,287 l 41,0 0,41 -41,0 z M 0,328 l 41,0 0,41 -41,0 z M 41,328 l 41,0 0,41 -41,0 z M 82,328 l 41,0 0,41 -41,0 z M 123,328 l 41,0 0,41 -41,0 z M 164,328 l 41,0 0,41 -41,0 z M 246,328 l 41,0 0,41 -41,0 z M 287,328 l 41,0 0,41 -41,0 z M 328,328 l 41,0 0,41 -41,0 z M 369,328 l 41,0 0,41 -41,0 z M 410,328 l 41,0 0,41 -41,0 z M 492,328 l 41,0 0,41 -41,0 z M 533,328 l 41,0 0,41 -41,0 z M 574,328 l 41,0 0,41 -41,0 z M 615,328 l 41,0 0,41 -41,0 z M 656,328 l 41,0 0,41 -41,0 z M 697,328 l 41,0 0,41 -41,0 z M 861,328 l 41,0 0,41 -41,0 z M 943,328 l 41,0 0,41 -41,0 z M 1025,328 l 41,0 0,41 -41,0 z M 1107,328 l 41,0 0,41 -41,0 z M 41,369 l 41,0 0,41 -41,0 z M 123,369 l 41,0 0,41 -41,0 z M 369,369 l 41,0 0,41 -41,0 z M 533,369 l 41,0 0,41 -41,0 z M 656,369 l 41,0 0,41 -41,0 z M 779,369 l 41,0 0,41 -41,0 z M 820,369 l 41,0 0,41 -41,0 z M 861,369 l 41,0 0,41 -41,0 z M 902,369 l 41,0 0,41 -41,0 z M 943,369 l 41,0 0,41 -41,0 z M 984,369 l 41,0 0,41 -41,0 z M 1148,369 l 41,0 0,41 -41,0 z M 0,410 l 41,0 0,41 -41,0 z M 82,410 l 41,0 0,41 -41,0 z M 123,410 l 41,0 0,41 -41,0 z M 246,410 l 41,0 0,41 -41,0 z M 369,410 l 41,0 0,41 -41,0 z M 451,410 l 41,0 0,41 -41,0 z M 492,410 l 41,0 0,41 -41,0 z M 533,410 l 41,0 0,41 -41,0 z M 574,410 l 41,0 0,41 -41,0 z M 615,410 l 41,0 0,41 -41,0 z M 656,410 l 41,0 0,41 -41,0 z M 861,410 l 41,0 0,41 -41,0 z M 984,410 l 41,0 0,41 -41,0 z M 0,451 l 41,0 0,41 -41,0 z M 41,451 l 41,0 0,41 -41,0 z M 205,451 l 41,0 0,41 -41,0 z M 287,451 l 41,0 0,41 -41,0 z M 369,451 l 41,0 0,41 -41,0 z M 410,451 l 41,0 0,41 -41,0 z M 451,451 l 41,0 0,41 -41,0 z M 615,451 l 41,0 0,41 -41,0 z M 738,451 l 41,0 0,41 -41,0 z M 779,451 l 41,0 0,41 -41,0 z M 820,451 l 41,0 0,41 -41,0 z M 1025,451 l 41,0 0,41 -41,0 z M 1107,451 l 41,0 0,41 -41,0 z M 205,492 l 41,0 0,41 -41,0 z M 246,492 l 41,0 0,41 -41,0 z M 287,492 l 41,0 0,41 -41,0 z M 328,492 l 41,0 0,41 -41,0 z M 369,492 l 41,0 0,41 -41,0 z M 451,492 l 41,0 0,41 -41,0 z M 492,492 l 41,0 0,41 -41,0 z M 533,492 l 41,0 0,41 -41,0 z M 574,492 l 41,0 0,41 -41,0 z M 615,492 l 41,0 0,41 -41,0 z M 697,492 l 41,0 0,41 -41,0 z M 779,492 l 41,0 0,41 -41,0 z M 1025,492 l 41,0 0,41 -41,0 z M 1066,492 l 41,0 0,41 -41,0 z M 0,533 l 41,0 0,41 -41,0 z M 82,533 l 41,0 0,41 -41,0 z M 123,533 l 41,0 0,41 -41,0 z M 328,533 l 41,0 0,41 -41,0 z M 369,533 l 41,0 0,41 -41,0 z M 410,533 l 41,0 0,41 -41,0 z M 492,533 l 41,0 0,41 -41,0 z M 533,533 l 41,0 0,41 -41,0 z M 656,533 l 41,0 0,41 -41,0 z M 697,533 l 41,0 0,41 -41,0 z M 738,533 l 41,0 0,41 -41,0 z M 779,533 l 41,0 0,41 -41,0 z M 820,533 l 41,0 0,41 -41,0 z M 861,533 l 41,0 0,41 -41,0 z M 902,533 l 41,0 0,41 -41,0 z M 943,533 l 41,0 0,41 -41,0 z M 984,533 l 41,0 0,41 -41,0 z M 1148,533 l 41,0 0,41 -41,0 z M 82,574 l 41,0 0,41 -41,0 z M 205,574 l 41,0 0,41 -41,0 z M 246,574 l 41,0 0,41 -41,0 z M 369,574 l 41,0 0,41 -41,0 z M 533,574 l 41,0 0,41 -41,0 z M 574,574 l 41,0 0,41 -41,0 z M 615,574 l 41,0 0,41 -41,0 z M 656,574 l 41,0 0,41 -41,0 z M 738,574 l 41,0 0,41 -41,0 z M 820,574 l 41,0 0,41 -41,0 z M 902,574 l 41,0 0,41 -41,0 z M 943,574 l 41,0 0,41 -41,0 z M 984,574 l 41,0 0,41 -41,0 z M 1025,574 l 41,0 0,41 -41,0 z M 1066,574 l 41,0 0,41 -41,0 z M 0,615 l 41,0 0,41 -41,0 z M 41,615 l 41,0 0,41 -41,0 z M 82,615 l 41,0 0,41 -41,0 z M 123,615 l 41,0 0,41 -41,0 z M 164,615 l 41,0 0,41 -41,0 z M 205,615 l 41,0 0,41 -41,0 z M 328,615 l 41,0 0,41 -41,0 z M 451,615 l 41,0 0,41 -41,0 z M 574,615 l 41,0 0,41 -41,0 z M 615,615 l 41,0 0,41 -41,0 z M 656,615 l 41,0 0,41 -41,0 z M 738,615 l 41,0 0,41 -41,0 z M 861,615 l 41,0 0,41 -41,0 z M 902,615 l 41,0 0,41 -41,0 z M 1107,615 l 41,0 0,41 -41,0 z M 0,656 l 41,0 0,41 -41,0 z M 82,656 l 41,0 0,41 -41,0 z M 164,656 l 41,0 0,41 -41,0 z M 246,656 l 41,0 0,41 -41,0 z M 287,656 l 41,0 0,41 -41,0 z M 410,656 l 41,0 0,41 -41,0 z M 451,656 l 41,0 0,41 -41,0 z M 492,656 l 41,0 0,41 -41,0 z M 533,656 l 41,0 0,41 -41,0 z M 574,656 l 41,0 0,41 -41,0 z M 697,656 l 41,0 0,41 -41,0 z M 861,656 l 41,0 0,41 -41,0 z M 1025,656 l 41,0 0,41 -41,0 z M 1066,656 l 41,0 0,41 -41,0 z M 0,697 l 41,0 0,41 -41,0 z M 41,697 l 41,0 0,41 -41,0 z M 82,697 l 41,0 0,41 -41,0 z M 123,697 l 41,0 0,41 -41,0 z M 164,697 l 41,0 0,41 -41,0 z M 205,697 l 41,0 0,41 -41,0 z M 451,697 l 41,0 0,41 -41,0 z M 492,697 l 41,0 0,41 -41,0 z M 574,697 l 41,0 0,41 -41,0 z M 615,697 l 41,0 0,41 -41,0 z M 656,697 l 41,0 0,41 -41,0 z M 779,697 l 41,0 0,41 -41,0 z M 820,697 l 41,0 0,41 -41,0 z M 861,697 l 41,0 0,41 -41,0 z M 902,697 l 41,0 0,41 -41,0 z M 943,697 l 41,0 0,41 -41,0 z M 984,697 l 41,0 0,41 -41,0 z M 1066,697 l 41,0 0,41 -41,0 z M 1148,697 l 41,0 0,41 -41,0 z M 0,738 l 41,0 0,41 -41,0 z M 123,738 l 41,0 0,41 -41,0 z M 205,738 l 41,0 0,41 -41,0 z M 246,738 l 41,0 0,41 -41,0 z M 287,738 l 41,0 0,41 -41,0 z M 533,738 l 41,0 0,41 -41,0 z M 574,738 l 41,0 0,41 -41,0 z M 615,738 l 41,0 0,41 -41,0 z M 656,738 l 41,0 0,41 -41,0 z M 902,738 l 41,0 0,41 -41,0 z M 943,738 l 41,0 0,41 -41,0 z M 984,738 l 41,0 0,41 -41,0 z M 1066,738 l 41,0 0,41 -41,0 z M 0,779 l 41,0 0,41 -41,0 z M 82,779 l 41,0 0,41 -41,0 z M 123,779 l 41,0 0,41 -41,0 z M 287,779 l 41,0 0,41 -41,0 z M 328,779 l 41,0 0,41 -41,0 z M 410,779 l 41,0 0,41 -41,0 z M 574,779 l 41,0 0,41 -41,0 z M 656,779 l 41,0 0,41 -41,0 z M 779,779 l 41,0 0,41 -41,0 z M 820,779 l 41,0 0,41 -41,0 z M 943,779 l 41,0 0,41 -41,0 z M 984,779 l 41,0 0,41 -41,0 z M 1107,779 l 41,0 0,41 -41,0 z M 0,820 l 41,0 0,41 -41,0 z M 82,820 l 41,0 0,41 -41,0 z M 164,820 l 41,0 0,41 -41,0 z M 246,820 l 41,0 0,41 -41,0 z M 328,820 l 41,0 0,41 -41,0 z M 410,820 l 41,0 0,41 -41,0 z M 492,820 l 41,0 0,41 -41,0 z M 533,820 l 41,0 0,41 -41,0 z M 574,820 l 41,0 0,41 -41,0 z M 697,820 l 41,0 0,41 -41,0 z M 779,820 l 41,0 0,41 -41,0 z M 820,820 l 41,0 0,41 -41,0 z M 861,820 l 41,0 0,41 -41,0 z M 902,820 l 41,0 0,41 -41,0 z M 943,820 l 41,0 0,41 -41,0 z M 984,820 l 41,0 0,41 -41,0 z M 1066,820 l 41,0 0,41 -41,0 z M 1107,820 l 41,0 0,41 -41,0 z M 1148,820 l 41,0 0,41 -41,0 z M 328,861 l 41,0 0,41 -41,0 z M 451,861 l 41,0 0,41 -41,0 z M 533,861 l 41,0 0,41 -41,0 z M 738,861 l 41,0 0,41 -41,0 z M 820,861 l 41,0 0,41 -41,0 z M 984,861 l 41,0 0,41 -41,0 z M 1025,861 l 41,0 0,41 -41,0 z M 1066,861 l 41,0 0,41 -41,0 z M 1107,861 l 41,0 0,41 -41,0 z M 1148,861 l 41,0 0,41 -41,0 z M 0,902 l 41,0 0,41 -41,0 z M 41,902 l 41,0 0,41 -41,0 z M 82,902 l 41,0 0,41 -41,0 z M 123,902 l 41,0 0,41 -41,0 z M 164,902 l 41,0 0,41 -41,0 z M 205,902 l 41,0 0,41 -41,0 z M 246,902 l 41,0 0,41 -41,0 z M 328,902 l 41,0 0,41 -41,0 z M 574,902 l 41,0 0,41 -41,0 z M 615,902 l 41,0 0,41 -41,0 z M 656,902 l 41,0 0,41 -41,0 z M 697,902 l 41,0 0,41 -41,0 z M 738,902 l 41,0 0,41 -41,0 z M 779,902 l 41,0 0,41 -41,0 z M 820,902 l 41,0 0,41 -41,0 z M 902,902 l 41,0 0,41 -41,0 z M 984,902 l 41,0 0,41 -41,0 z M 1025,902 l 41,0 0,41 -41,0 z M 1066,902 l 41,0 0,41 -41,0 z M 0,943 l 41,0 0,41 -41,0 z M 246,943 l 41,0 0,41 -41,0 z M 410,943 l 41,0 0,41 -41,0 z M 451,943 l 41,0 0,41 -41,0 z M 656,943 l 41,0 0,41 -41,0 z M 738,943 l 41,0 0,41 -41,0 z M 779,943 l 41,0 0,41 -41,0 z M 820,943 l 41,0 0,41 -41,0 z M 984,943 l 41,0 0,41 -41,0 z M 1148,943 l 41,0 0,41 -41,0 z M 0,984 l 41,0 0,41 -41,0 z M 82,984 l 41,0 0,41 -41,0 z M 123,984 l 41,0 0,41 -41,0 z M 164,984 l 41,0 0,41 -41,0 z M 246,984 l 41,0 0,41 -41,0 z M 328,984 l 41,0 0,41 -41,0 z M 369,984 l 41,0 0,41 -41,0 z M 410,984 l 41,0 0,41 -41,0 z M 492,984 l 41,0 0,41 -41,0 z M 533,984 l 41,0 0,41 -41,0 z M 574,984 l 41,0 0,41 -41,0 z M 697,984 l 41,0 0,41 -41,0 z M 738,984 l 41,0 0,41 -41,0 z M 820,984 l 41,0 0,41 -41,0 z M 861,984 l 41,0 0,41 -41,0 z M 902,984 l 41,0 0,41 -41,0 z M 943,984 l 41,0 0,41 -41,0 z M 984,984 l 41,0 0,41 -41,0 z M 1066,984 l 41,0 0,41 -41,0 z M 1148,984 l 41,0 0,41 -41,0 z M 0,1025 l 41,0 0,41 -41,0 z M 82,1025 l 41,0 0,41 -41,0 z M 123,1025 l 41,0 0,41 -41,0 z M 164,1025 l 41,0 0,41 -41,0 z M 246,1025 l 41,0 0,41 -41,0 z M 328,1025 l 41,0 0,41 -41,0 z M 451,1025 l 41,0 0,41 -41,0 z M 656,1025 l 41,0 0,41 -41,0 z M 697,1025 l 41,0 0,41 -41,0 z M 738,1025 l 41,0 0,41 -41,0 z M 779,1025 l 41,0 0,41 -41,0 z M 1025,1025 l 41,0 0,41 -41,0 z M 1066,1025 l 41,0 0,41 -41,0 z M 1107,1025 l 41,0 0,41 -41,0 z M 1148,1025 l 41,0 0,41 -41,0 z M 0,1066 l 41,0 0,41 -41,0 z M 82,1066 l 41,0 0,41 -41,0 z M 123,1066 l 41,0 0,41 -41,0 z M 164,1066 l 41,0 0,41 -41,0 z M 246,1066 l 41,0 0,41 -41,0 z M 328,1066 l 41,0 0,41 -41,0 z M 369,1066 l 41,0 0,41 -41,0 z M 492,1066 l 41,0 0,41 -41,0 z M 574,1066 l 41,0 0,41 -41,0 z M 615,1066 l 41,0 0,41 -41,0 z M 656,1066 l 41,0 0,41 -41,0 z M 697,1066 l 41,0 0,41 -41,0 z M 861,1066 l 41,0 0,41 -41,0 z M 902,1066 l 41,0 0,41 -41,0 z M 943,1066 l 41,0 0,41 -41,0 z M 984,1066 l 41,0 0,41 -41,0 z M 1025,1066 l 41,0 0,41 -41,0 z M 1066,1066 l 41,0 0,41 -41,0 z M 1107,1066 l 41,0 0,41 -41,0 z M 0,1107 l 41,0 0,41 -41,0 z M 246,1107 l 41,0 0,41 -41,0 z M 328,1107 l 41,0 0,41 -41,0 z M 369,1107 l 41,0 0,41 -41,0 z M 410,1107 l 41,0 0,41 -41,0 z M 574,1107 l 41,0 0,41 -41,0 z M 615,1107 l 41,0 0,41 -41,0 z M 738,1107 l 41,0 0,41 -41,0 z M 820,1107 l 41,0 0,41 -41,0 z M 861,1107 l 41,0 0,41 -41,0 z M 984,1107 l 41,0 0,41 -41,0 z M 1025,1107 l 41,0 0,41 -41,0 z M 1107,1107 l 41,0 0,41 -41,0 z M 0,1148 l 41,0 0,41 -41,0 z M 41,1148 l 41,0 0,41 -41,0 z M 82,1148 l 41,0 0,41 -41,0 z M 123,1148 l 41,0 0,41 -41,0 z M 164,1148 l 41,0 0,41 -41,0 z M 205,1148 l 41,0 0,41 -41,0 z M 246,1148 l 41,0 0,41 -41,0 z M 328,1148 l 41,0 0,41 -41,0 z M 369,1148 l 41,0 0,41 -41,0 z M 410,1148 l 41,0 0,41 -41,0 z M 492,1148 l 41,0 0,41 -41,0 z M 533,1148 l 41,0 0,41 -41,0 z M 574,1148 l 41,0 0,41 -41,0 z M 697,1148 l 41,0 0,41 -41,0 z M 779,1148 l 41,0 0,41 -41,0 z M 861,1148 l 41,0 0,41 -41,0 z M 902,1148 l 41,0 0,41 -41,0 z M 984,1148 l 41,0 0,41 -41,0 z M 1025,1148 l 41,0 0,41 -41,0 z M 1066,1148 l 41,0 0,41 -41,0 z " />
	</g>
</svg>
